# xmcd
#
# Track frame offsets: 
#        150
#        14850
#        26232
#        37775
#        46722
#        59347
#        70315
#        80142
#        91695
#        105260
#        112010
#        124775
#        138850
#        148767
#        156927
#        169192
#
# Disc length: 2363 seconds
#
# Revision: 4
# Processed by: cddbd v1.5.2PL0 Copyright (c) Steve Scherf et al.
# Submitted via: ExactAudioCopyFreeDBPlugin 1.0
#
DISCID=d8093910
DTITLE=Willie Nelson - The Best Of
DYEAR=1988
DGENRE=Country
TTITLE0=And so will you my love
TTITLE1=Night life
TTITLE2=Happiness lives next door
TTITLE3=Right from wrong
TTITLE4=Any old arms won't do
TTITLE5=I'm going to lose a lot of teardrops
TTITLE6=Broken promises
TTITLE7=December days
TTITLE8=A moment isn't very long
TTITLE9=Both ends of the candle
TTITLE10=I just don't understand
TTITLE11=So much to do
TTITLE12=I didn't sleep a wink
TTITLE13=You wouldn't cross the street to say goodbye
TTITLE14=I can't find the time
TTITLE15=Things to remember
EXTD=YEAR: 1988
EXTT0=
EXTT1=
EXTT2=
EXTT3=
EXTT4=
EXTT5=
EXTT6=
EXTT7=
EXTT8=
EXTT9=
EXTT10=
EXTT11=
EXTT12=
EXTT13=
EXTT14=
EXTT15=
PLAYORDER=
